<svg width="482" height="454" viewBox="0 0 482 454" fill="none" xmlns="http://www.w3.org/2000/svg">
<path d="M207.904 5.42773C208.385 4.83789 209.01 4.54297 209.779 4.54297C211.119 4.54297 211.795 5.29883 211.807 6.81055V11H210.723V6.80469C210.719 6.34766 210.613 6.00977 210.406 5.79102C210.203 5.57227 209.885 5.46289 209.451 5.46289C209.1 5.46289 208.791 5.55664 208.525 5.74414C208.26 5.93164 208.053 6.17773 207.904 6.48242V11H206.82V2H207.904V5.42773ZM214.9 3.125V4.66016H216.084V5.49805H214.9V9.42969C214.9 9.68359 214.953 9.875 215.059 10.0039C215.164 10.1289 215.344 10.1914 215.598 10.1914C215.723 10.1914 215.895 10.168 216.113 10.1211V11C215.828 11.0781 215.551 11.1172 215.281 11.1172C214.797 11.1172 214.432 10.9707 214.186 10.6777C213.939 10.3848 213.816 9.96875 213.816 9.42969V5.49805H212.662V4.66016H213.816V3.125H214.9ZM218.375 4.66016L218.404 5.36328C218.869 4.81641 219.496 4.54297 220.285 4.54297C221.172 4.54297 221.775 4.88281 222.096 5.5625C222.307 5.25781 222.58 5.01172 222.916 4.82422C223.256 4.63672 223.656 4.54297 224.117 4.54297C225.508 4.54297 226.215 5.2793 226.238 6.75195V11H225.154V6.81641C225.154 6.36328 225.051 6.02539 224.844 5.80273C224.637 5.57617 224.289 5.46289 223.801 5.46289C223.398 5.46289 223.064 5.58398 222.799 5.82617C222.533 6.06445 222.379 6.38672 222.336 6.79297V11H221.246V6.8457C221.246 5.92383 220.795 5.46289 219.893 5.46289C219.182 5.46289 218.695 5.76562 218.434 6.37109V11H217.35V4.66016H218.375ZM229.057 11H227.973V2H229.057V11ZM236.879 6.42383H239.258V7.44922H236.879V10.1445H235.789V7.44922H233.41V6.42383H235.789V3.93359H236.879V6.42383ZM246.102 10.2324C246.488 10.2324 246.826 10.1152 247.115 9.88086C247.404 9.64648 247.564 9.35352 247.596 9.00195H248.621C248.602 9.36523 248.477 9.71094 248.246 10.0391C248.016 10.3672 247.707 10.6289 247.32 10.8242C246.938 11.0195 246.531 11.1172 246.102 11.1172C245.238 11.1172 244.551 10.8301 244.039 10.2559C243.531 9.67773 243.277 8.88867 243.277 7.88867V7.70703C243.277 7.08984 243.391 6.54102 243.617 6.06055C243.844 5.58008 244.168 5.20703 244.59 4.94141C245.016 4.67578 245.518 4.54297 246.096 4.54297C246.807 4.54297 247.396 4.75586 247.865 5.18164C248.338 5.60742 248.59 6.16016 248.621 6.83984H247.596C247.564 6.42969 247.408 6.09375 247.127 5.83203C246.85 5.56641 246.506 5.43359 246.096 5.43359C245.545 5.43359 245.117 5.63281 244.812 6.03125C244.512 6.42578 244.361 6.99805 244.361 7.74805V7.95312C244.361 8.68359 244.512 9.24609 244.812 9.64062C245.113 10.0352 245.543 10.2324 246.102 10.2324ZM253.531 9.31836C253.531 9.02539 253.42 8.79883 253.197 8.63867C252.979 8.47461 252.594 8.33398 252.043 8.2168C251.496 8.09961 251.061 7.95898 250.736 7.79492C250.416 7.63086 250.178 7.43555 250.021 7.20898C249.869 6.98242 249.793 6.71289 249.793 6.40039C249.793 5.88086 250.012 5.44141 250.449 5.08203C250.891 4.72266 251.453 4.54297 252.137 4.54297C252.855 4.54297 253.438 4.72852 253.883 5.09961C254.332 5.4707 254.557 5.94531 254.557 6.52344H253.467C253.467 6.22656 253.34 5.9707 253.086 5.75586C252.836 5.54102 252.52 5.43359 252.137 5.43359C251.742 5.43359 251.434 5.51953 251.211 5.69141C250.988 5.86328 250.877 6.08789 250.877 6.36523C250.877 6.62695 250.98 6.82422 251.188 6.95703C251.395 7.08984 251.768 7.2168 252.307 7.33789C252.85 7.45898 253.289 7.60352 253.625 7.77148C253.961 7.93945 254.209 8.14258 254.369 8.38086C254.533 8.61523 254.615 8.90234 254.615 9.24219C254.615 9.80859 254.389 10.2637 253.936 10.6074C253.482 10.9473 252.895 11.1172 252.172 11.1172C251.664 11.1172 251.215 11.0273 250.824 10.8477C250.434 10.668 250.127 10.418 249.904 10.0977C249.686 9.77344 249.576 9.42383 249.576 9.04883H250.66C250.68 9.41211 250.824 9.70117 251.094 9.91602C251.367 10.127 251.727 10.2324 252.172 10.2324C252.582 10.2324 252.91 10.1504 253.156 9.98633C253.406 9.81836 253.531 9.5957 253.531 9.31836ZM259.719 9.31836C259.719 9.02539 259.607 8.79883 259.385 8.63867C259.166 8.47461 258.781 8.33398 258.23 8.2168C257.684 8.09961 257.248 7.95898 256.924 7.79492C256.604 7.63086 256.365 7.43555 256.209 7.20898C256.057 6.98242 255.98 6.71289 255.98 6.40039C255.98 5.88086 256.199 5.44141 256.637 5.08203C257.078 4.72266 257.641 4.54297 258.324 4.54297C259.043 4.54297 259.625 4.72852 260.07 5.09961C260.52 5.4707 260.744 5.94531 260.744 6.52344H259.654C259.654 6.22656 259.527 5.9707 259.273 5.75586C259.023 5.54102 258.707 5.43359 258.324 5.43359C257.93 5.43359 257.621 5.51953 257.398 5.69141C257.176 5.86328 257.064 6.08789 257.064 6.36523C257.064 6.62695 257.168 6.82422 257.375 6.95703C257.582 7.08984 257.955 7.2168 258.494 7.33789C259.037 7.45898 259.477 7.60352 259.812 7.77148C260.148 7.93945 260.396 8.14258 260.557 8.38086C260.721 8.61523 260.803 8.90234 260.803 9.24219C260.803 9.80859 260.576 10.2637 260.123 10.6074C259.67 10.9473 259.082 11.1172 258.359 11.1172C257.852 11.1172 257.402 11.0273 257.012 10.8477C256.621 10.668 256.314 10.418 256.092 10.0977C255.873 9.77344 255.764 9.42383 255.764 9.04883H256.848C256.867 9.41211 257.012 9.70117 257.281 9.91602C257.555 10.127 257.914 10.2324 258.359 10.2324C258.77 10.2324 259.098 10.1504 259.344 9.98633C259.594 9.81836 259.719 9.5957 259.719 9.31836Z" fill="black"/>
<path d="M420.885 149.633C420.721 149.605 420.543 149.592 420.352 149.592C419.641 149.592 419.158 149.895 418.904 150.5V155H417.82V148.66H418.875L418.893 149.393C419.248 148.826 419.752 148.543 420.404 148.543C420.615 148.543 420.775 148.57 420.885 148.625V149.633ZM425.801 154.373C425.379 154.869 424.76 155.117 423.943 155.117C423.268 155.117 422.752 154.922 422.396 154.531C422.045 154.137 421.867 153.555 421.863 152.785V148.66H422.947V152.756C422.947 153.717 423.338 154.197 424.119 154.197C424.947 154.197 425.498 153.889 425.771 153.271V148.66H426.855V155H425.824L425.801 154.373ZM433.875 151.9C433.875 152.869 433.652 153.648 433.207 154.238C432.762 154.824 432.164 155.117 431.414 155.117C430.613 155.117 429.994 154.834 429.557 154.268L429.504 155H428.508V146H429.592V149.357C430.029 148.814 430.633 148.543 431.402 148.543C432.172 148.543 432.775 148.834 433.213 149.416C433.654 149.998 433.875 150.795 433.875 151.807V151.9ZM432.791 151.777C432.791 151.039 432.648 150.469 432.363 150.066C432.078 149.664 431.668 149.463 431.133 149.463C430.418 149.463 429.904 149.795 429.592 150.459V153.201C429.924 153.865 430.441 154.197 431.145 154.197C431.664 154.197 432.068 153.996 432.357 153.594C432.646 153.191 432.791 152.586 432.791 151.777ZM437.25 153.412L438.727 148.66H439.887L437.338 155.979C436.943 157.033 436.316 157.561 435.457 157.561L435.252 157.543L434.848 157.467V156.588L435.141 156.611C435.508 156.611 435.793 156.537 435.996 156.389C436.203 156.24 436.373 155.969 436.506 155.574L436.746 154.93L434.484 148.66H435.668L437.25 153.412ZM443.549 151.771C443.549 151.15 443.67 150.592 443.912 150.096C444.158 149.6 444.498 149.217 444.932 148.947C445.369 148.678 445.867 148.543 446.426 148.543C447.289 148.543 447.986 148.842 448.518 149.439C449.053 150.037 449.32 150.832 449.32 151.824V151.9C449.32 152.518 449.201 153.072 448.963 153.564C448.729 154.053 448.391 154.434 447.949 154.707C447.512 154.98 447.008 155.117 446.438 155.117C445.578 155.117 444.881 154.818 444.346 154.221C443.814 153.623 443.549 152.832 443.549 151.848V151.771ZM444.639 151.9C444.639 152.604 444.801 153.168 445.125 153.594C445.453 154.02 445.891 154.232 446.438 154.232C446.988 154.232 447.426 154.018 447.75 153.588C448.074 153.154 448.236 152.549 448.236 151.771C448.236 151.076 448.07 150.514 447.738 150.084C447.41 149.65 446.973 149.434 446.426 149.434C445.891 149.434 445.459 149.646 445.131 150.072C444.803 150.498 444.639 151.107 444.639 151.9ZM451.705 148.66L451.74 149.457C452.225 148.848 452.857 148.543 453.639 148.543C454.979 148.543 455.654 149.299 455.666 150.811V155H454.582V150.805C454.578 150.348 454.473 150.01 454.266 149.791C454.062 149.572 453.744 149.463 453.311 149.463C452.959 149.463 452.65 149.557 452.385 149.744C452.119 149.932 451.912 150.178 451.764 150.482V155H450.68V148.66H451.705ZM463.342 149.633C463.178 149.605 463 149.592 462.809 149.592C462.098 149.592 461.615 149.895 461.361 150.5V155H460.277V148.66H461.332L461.35 149.393C461.705 148.826 462.209 148.543 462.861 148.543C463.072 148.543 463.232 148.57 463.342 148.625V149.633ZM468.023 155C467.961 154.875 467.91 154.652 467.871 154.332C467.367 154.855 466.766 155.117 466.066 155.117C465.441 155.117 464.928 154.941 464.525 154.59C464.127 154.234 463.928 153.785 463.928 153.242C463.928 152.582 464.178 152.07 464.678 151.707C465.182 151.34 465.889 151.156 466.799 151.156H467.854V150.658C467.854 150.279 467.74 149.979 467.514 149.756C467.287 149.529 466.953 149.416 466.512 149.416C466.125 149.416 465.801 149.514 465.539 149.709C465.277 149.904 465.146 150.141 465.146 150.418H464.057C464.057 150.102 464.168 149.797 464.391 149.504C464.617 149.207 464.922 148.973 465.305 148.801C465.691 148.629 466.115 148.543 466.576 148.543C467.307 148.543 467.879 148.727 468.293 149.094C468.707 149.457 468.922 149.959 468.938 150.6V153.518C468.938 154.1 469.012 154.562 469.16 154.906V155H468.023ZM466.225 154.174C466.564 154.174 466.887 154.086 467.191 153.91C467.496 153.734 467.717 153.506 467.854 153.225V151.924H467.004C465.676 151.924 465.012 152.312 465.012 153.09C465.012 153.43 465.125 153.695 465.352 153.887C465.578 154.078 465.869 154.174 466.225 154.174ZM471.814 155H470.73V148.66H471.814V155ZM470.643 146.979C470.643 146.803 470.695 146.654 470.801 146.533C470.91 146.412 471.07 146.352 471.281 146.352C471.492 146.352 471.652 146.412 471.762 146.533C471.871 146.654 471.926 146.803 471.926 146.979C471.926 147.154 471.871 147.301 471.762 147.418C471.652 147.535 471.492 147.594 471.281 147.594C471.07 147.594 470.91 147.535 470.801 147.418C470.695 147.301 470.643 147.154 470.643 146.979ZM474.732 155H473.648V146H474.732V155ZM480.164 153.318C480.164 153.025 480.053 152.799 479.83 152.639C479.611 152.475 479.227 152.334 478.676 152.217C478.129 152.1 477.693 151.959 477.369 151.795C477.049 151.631 476.811 151.436 476.654 151.209C476.502 150.982 476.426 150.713 476.426 150.4C476.426 149.881 476.645 149.441 477.082 149.082C477.523 148.723 478.086 148.543 478.77 148.543C479.488 148.543 480.07 148.729 480.516 149.1C480.965 149.471 481.189 149.945 481.189 150.523H480.1C480.1 150.227 479.973 149.971 479.719 149.756C479.469 149.541 479.152 149.434 478.77 149.434C478.375 149.434 478.066 149.52 477.844 149.691C477.621 149.863 477.51 150.088 477.51 150.365C477.51 150.627 477.613 150.824 477.82 150.957C478.027 151.09 478.4 151.217 478.939 151.338C479.482 151.459 479.922 151.604 480.258 151.771C480.594 151.939 480.842 152.143 481.002 152.381C481.166 152.615 481.248 152.902 481.248 153.242C481.248 153.809 481.021 154.264 480.568 154.607C480.115 154.947 479.527 155.117 478.805 155.117C478.297 155.117 477.848 155.027 477.457 154.848C477.066 154.668 476.76 154.418 476.537 154.098C476.318 153.773 476.209 153.424 476.209 153.049H477.293C477.312 153.412 477.457 153.701 477.727 153.916C478 154.127 478.359 154.232 478.805 154.232C479.215 154.232 479.543 154.15 479.789 153.986C480.039 153.818 480.164 153.596 480.164 153.318Z" fill="black"/>
<path d="M1.99805 155H0.914062V148.66H1.99805V155ZM0.826172 146.979C0.826172 146.803 0.878906 146.654 0.984375 146.533C1.09375 146.412 1.25391 146.352 1.46484 146.352C1.67578 146.352 1.83594 146.412 1.94531 146.533C2.05469 146.654 2.10938 146.803 2.10938 146.979C2.10938 147.154 2.05469 147.301 1.94531 147.418C1.83594 147.535 1.67578 147.594 1.46484 147.594C1.25391 147.594 1.09375 147.535 0.984375 147.418C0.878906 147.301 0.826172 147.154 0.826172 146.979ZM4.91602 155H3.83203V146H4.91602V155ZM7.83398 155H6.75V146H7.83398V155ZM13.4883 154.373C13.0664 154.869 12.4473 155.117 11.6309 155.117C10.9551 155.117 10.4395 154.922 10.084 154.531C9.73242 154.137 9.55469 153.555 9.55078 152.785V148.66H10.6348V152.756C10.6348 153.717 11.0254 154.197 11.8066 154.197C12.6348 154.197 13.1855 153.889 13.459 153.271V148.66H14.543V155H13.5117L13.4883 154.373ZM19.8867 153.318C19.8867 153.025 19.7754 152.799 19.5527 152.639C19.334 152.475 18.9492 152.334 18.3984 152.217C17.8516 152.1 17.416 151.959 17.0918 151.795C16.7715 151.631 16.5332 151.436 16.377 151.209C16.2246 150.982 16.1484 150.713 16.1484 150.4C16.1484 149.881 16.3672 149.441 16.8047 149.082C17.2461 148.723 17.8086 148.543 18.4922 148.543C19.2109 148.543 19.793 148.729 20.2383 149.1C20.6875 149.471 20.9121 149.945 20.9121 150.523H19.8223C19.8223 150.227 19.6953 149.971 19.4414 149.756C19.1914 149.541 18.875 149.434 18.4922 149.434C18.0977 149.434 17.7891 149.52 17.5664 149.691C17.3438 149.863 17.2324 150.088 17.2324 150.365C17.2324 150.627 17.3359 150.824 17.543 150.957C17.75 151.09 18.123 151.217 18.6621 151.338C19.2051 151.459 19.6445 151.604 19.9805 151.771C20.3164 151.939 20.5645 152.143 20.7246 152.381C20.8887 152.615 20.9707 152.902 20.9707 153.242C20.9707 153.809 20.7441 154.264 20.291 154.607C19.8379 154.947 19.25 155.117 18.5273 155.117C18.0195 155.117 17.5703 155.027 17.1797 154.848C16.7891 154.668 16.4824 154.418 16.2598 154.098C16.041 153.773 15.9316 153.424 15.9316 153.049H17.0156C17.0352 153.412 17.1797 153.701 17.4492 153.916C17.7227 154.127 18.082 154.232 18.5273 154.232C18.9375 154.232 19.2656 154.15 19.5117 153.986C19.7617 153.818 19.8867 153.596 19.8867 153.318ZM23.8535 147.125V148.66H25.0371V149.498H23.8535V153.43C23.8535 153.684 23.9062 153.875 24.0117 154.004C24.1172 154.129 24.2969 154.191 24.5508 154.191C24.6758 154.191 24.8477 154.168 25.0664 154.121V155C24.7812 155.078 24.5039 155.117 24.2344 155.117C23.75 155.117 23.3848 154.971 23.1387 154.678C22.8926 154.385 22.7695 153.969 22.7695 153.43V149.498H21.6152V148.66H22.7695V147.125H23.8535ZM29.373 149.633C29.209 149.605 29.0312 149.592 28.8398 149.592C28.1289 149.592 27.6465 149.895 27.3926 150.5V155H26.3086V148.66H27.3633L27.3809 149.393C27.7363 148.826 28.2402 148.543 28.8926 148.543C29.1035 148.543 29.2637 148.57 29.373 148.625V149.633ZM34.0547 155C33.9922 154.875 33.9414 154.652 33.9023 154.332C33.3984 154.855 32.7969 155.117 32.0977 155.117C31.4727 155.117 30.959 154.941 30.5566 154.59C30.1582 154.234 29.959 153.785 29.959 153.242C29.959 152.582 30.209 152.07 30.709 151.707C31.2129 151.34 31.9199 151.156 32.8301 151.156H33.8848V150.658C33.8848 150.279 33.7715 149.979 33.5449 149.756C33.3184 149.529 32.9844 149.416 32.543 149.416C32.1562 149.416 31.832 149.514 31.5703 149.709C31.3086 149.904 31.1777 150.141 31.1777 150.418H30.0879C30.0879 150.102 30.1992 149.797 30.4219 149.504C30.6484 149.207 30.9531 148.973 31.3359 148.801C31.7227 148.629 32.1465 148.543 32.6074 148.543C33.3379 148.543 33.9102 148.727 34.3242 149.094C34.7383 149.457 34.9531 149.959 34.9688 150.6V153.518C34.9688 154.1 35.043 154.562 35.1914 154.906V155H34.0547ZM32.2559 154.174C32.5957 154.174 32.918 154.086 33.2227 153.91C33.5273 153.734 33.748 153.506 33.8848 153.225V151.924H33.0352C31.707 151.924 31.043 152.312 31.043 153.09C31.043 153.43 31.1562 153.695 31.3828 153.887C31.6094 154.078 31.9004 154.174 32.2559 154.174ZM38.1387 147.125V148.66H39.3223V149.498H38.1387V153.43C38.1387 153.684 38.1914 153.875 38.2969 154.004C38.4023 154.129 38.582 154.191 38.8359 154.191C38.9609 154.191 39.1328 154.168 39.3516 154.121V155C39.0664 155.078 38.7891 155.117 38.5195 155.117C38.0352 155.117 37.6699 154.971 37.4238 154.678C37.1777 154.385 37.0547 153.969 37.0547 153.43V149.498H35.9004V148.66H37.0547V147.125H38.1387ZM40.1895 151.771C40.1895 151.15 40.3105 150.592 40.5527 150.096C40.7988 149.6 41.1387 149.217 41.5723 148.947C42.0098 148.678 42.5078 148.543 43.0664 148.543C43.9297 148.543 44.627 148.842 45.1582 149.439C45.6934 150.037 45.9609 150.832 45.9609 151.824V151.9C45.9609 152.518 45.8418 153.072 45.6035 153.564C45.3691 154.053 45.0312 154.434 44.5898 154.707C44.1523 154.98 43.6484 155.117 43.0781 155.117C42.2188 155.117 41.5215 154.818 40.9863 154.221C40.4551 153.623 40.1895 152.832 40.1895 151.848V151.771ZM41.2793 151.9C41.2793 152.604 41.4414 153.168 41.7656 153.594C42.0938 154.02 42.5312 154.232 43.0781 154.232C43.6289 154.232 44.0664 154.018 44.3906 153.588C44.7148 153.154 44.877 152.549 44.877 151.771C44.877 151.076 44.7109 150.514 44.3789 150.084C44.0508 149.65 43.6133 149.434 43.0664 149.434C42.5312 149.434 42.0996 149.646 41.7715 150.072C41.4434 150.498 41.2793 151.107 41.2793 151.9ZM50.3848 149.633C50.2207 149.605 50.043 149.592 49.8516 149.592C49.1406 149.592 48.6582 149.895 48.4043 150.5V155H47.3203V148.66H48.375L48.3926 149.393C48.748 148.826 49.252 148.543 49.9043 148.543C50.1152 148.543 50.2754 148.57 50.3848 148.625V149.633Z" fill="black"/>
<path d="M111.885 361.633C111.721 361.605 111.543 361.592 111.352 361.592C110.641 361.592 110.158 361.895 109.904 362.5V367H108.82V360.66H109.875L109.893 361.393C110.248 360.826 110.752 360.543 111.404 360.543C111.615 360.543 111.775 360.57 111.885 360.625V361.633ZM115.4 367.117C114.541 367.117 113.842 366.836 113.303 366.273C112.764 365.707 112.494 364.951 112.494 364.006V363.807C112.494 363.178 112.613 362.617 112.852 362.125C113.094 361.629 113.43 361.242 113.859 360.965C114.293 360.684 114.762 360.543 115.266 360.543C116.09 360.543 116.73 360.814 117.188 361.357C117.645 361.9 117.873 362.678 117.873 363.689V364.141H113.578C113.594 364.766 113.775 365.271 114.123 365.658C114.475 366.041 114.92 366.232 115.459 366.232C115.842 366.232 116.166 366.154 116.432 365.998C116.697 365.842 116.93 365.635 117.129 365.377L117.791 365.893C117.26 366.709 116.463 367.117 115.4 367.117ZM115.266 361.434C114.828 361.434 114.461 361.594 114.164 361.914C113.867 362.23 113.684 362.676 113.613 363.25H116.789V363.168C116.758 362.617 116.609 362.191 116.344 361.891C116.078 361.586 115.719 361.434 115.266 361.434ZM123.047 367C122.984 366.875 122.934 366.652 122.895 366.332C122.391 366.855 121.789 367.117 121.09 367.117C120.465 367.117 119.951 366.941 119.549 366.59C119.15 366.234 118.951 365.785 118.951 365.242C118.951 364.582 119.201 364.07 119.701 363.707C120.205 363.34 120.912 363.156 121.822 363.156H122.877V362.658C122.877 362.279 122.764 361.979 122.537 361.756C122.311 361.529 121.977 361.416 121.535 361.416C121.148 361.416 120.824 361.514 120.562 361.709C120.301 361.904 120.17 362.141 120.17 362.418H119.08C119.08 362.102 119.191 361.797 119.414 361.504C119.641 361.207 119.945 360.973 120.328 360.801C120.715 360.629 121.139 360.543 121.6 360.543C122.33 360.543 122.902 360.727 123.316 361.094C123.73 361.457 123.945 361.959 123.961 362.6V365.518C123.961 366.1 124.035 366.562 124.184 366.906V367H123.047ZM121.248 366.174C121.588 366.174 121.91 366.086 122.215 365.91C122.52 365.734 122.74 365.506 122.877 365.225V363.924H122.027C120.699 363.924 120.035 364.312 120.035 365.09C120.035 365.43 120.148 365.695 120.375 365.887C120.602 366.078 120.893 366.174 121.248 366.174ZM128.203 366.232C128.59 366.232 128.928 366.115 129.217 365.881C129.506 365.646 129.666 365.354 129.697 365.002H130.723C130.703 365.365 130.578 365.711 130.348 366.039C130.117 366.367 129.809 366.629 129.422 366.824C129.039 367.02 128.633 367.117 128.203 367.117C127.34 367.117 126.652 366.83 126.141 366.256C125.633 365.678 125.379 364.889 125.379 363.889V363.707C125.379 363.09 125.492 362.541 125.719 362.061C125.945 361.58 126.27 361.207 126.691 360.941C127.117 360.676 127.619 360.543 128.197 360.543C128.908 360.543 129.498 360.756 129.967 361.182C130.439 361.607 130.691 362.16 130.723 362.84H129.697C129.666 362.43 129.51 362.094 129.229 361.832C128.951 361.566 128.607 361.434 128.197 361.434C127.646 361.434 127.219 361.633 126.914 362.031C126.613 362.426 126.463 362.998 126.463 363.748V363.953C126.463 364.684 126.613 365.246 126.914 365.641C127.215 366.035 127.645 366.232 128.203 366.232ZM133.412 359.125V360.66H134.596V361.498H133.412V365.43C133.412 365.684 133.465 365.875 133.57 366.004C133.676 366.129 133.855 366.191 134.109 366.191C134.234 366.191 134.406 366.168 134.625 366.121V367C134.34 367.078 134.062 367.117 133.793 367.117C133.309 367.117 132.943 366.971 132.697 366.678C132.451 366.385 132.328 365.969 132.328 365.43V361.498H131.174V360.66H132.328V359.125H133.412ZM135.891 366.432C135.891 366.244 135.945 366.088 136.055 365.963C136.168 365.838 136.336 365.775 136.559 365.775C136.781 365.775 136.949 365.838 137.062 365.963C137.18 366.088 137.238 366.244 137.238 366.432C137.238 366.611 137.18 366.762 137.062 366.883C136.949 367.004 136.781 367.064 136.559 367.064C136.336 367.064 136.168 367.004 136.055 366.883C135.945 366.762 135.891 366.611 135.891 366.432ZM140.15 360.66V367.732C140.15 368.951 139.598 369.561 138.492 369.561C138.254 369.561 138.033 369.525 137.83 369.455V368.588C137.955 368.619 138.119 368.635 138.322 368.635C138.564 368.635 138.748 368.568 138.873 368.436C139.002 368.307 139.066 368.08 139.066 367.756V360.66H140.15ZM138.955 358.979C138.955 358.807 139.008 358.66 139.113 358.539C139.223 358.414 139.381 358.352 139.588 358.352C139.799 358.352 139.959 358.412 140.068 358.533C140.178 358.654 140.232 358.803 140.232 358.979C140.232 359.154 140.178 359.301 140.068 359.418C139.959 359.535 139.799 359.594 139.588 359.594C139.377 359.594 139.219 359.535 139.113 359.418C139.008 359.301 138.955 359.154 138.955 358.979ZM145.594 365.318C145.594 365.025 145.482 364.799 145.26 364.639C145.041 364.475 144.656 364.334 144.105 364.217C143.559 364.1 143.123 363.959 142.799 363.795C142.479 363.631 142.24 363.436 142.084 363.209C141.932 362.982 141.855 362.713 141.855 362.4C141.855 361.881 142.074 361.441 142.512 361.082C142.953 360.723 143.516 360.543 144.199 360.543C144.918 360.543 145.5 360.729 145.945 361.1C146.395 361.471 146.619 361.945 146.619 362.523H145.529C145.529 362.227 145.402 361.971 145.148 361.756C144.898 361.541 144.582 361.434 144.199 361.434C143.805 361.434 143.496 361.52 143.273 361.691C143.051 361.863 142.939 362.088 142.939 362.365C142.939 362.627 143.043 362.824 143.25 362.957C143.457 363.09 143.83 363.217 144.369 363.338C144.912 363.459 145.352 363.604 145.688 363.771C146.023 363.939 146.271 364.143 146.432 364.381C146.596 364.615 146.678 364.902 146.678 365.242C146.678 365.809 146.451 366.264 145.998 366.607C145.545 366.947 144.957 367.117 144.234 367.117C143.727 367.117 143.277 367.027 142.887 366.848C142.496 366.668 142.189 366.418 141.967 366.098C141.748 365.773 141.639 365.424 141.639 365.049H142.723C142.742 365.412 142.887 365.701 143.156 365.916C143.43 366.127 143.789 366.232 144.234 366.232C144.645 366.232 144.973 366.15 145.219 365.986C145.469 365.818 145.594 365.596 145.594 365.318Z" fill="black"/>
<path d="M323.846 360.66L323.881 361.457C324.365 360.848 324.998 360.543 325.779 360.543C327.119 360.543 327.795 361.299 327.807 362.811V367H326.723V362.805C326.719 362.348 326.613 362.01 326.406 361.791C326.203 361.572 325.885 361.463 325.451 361.463C325.1 361.463 324.791 361.557 324.525 361.744C324.26 361.932 324.053 362.178 323.904 362.482V367H322.82V360.66H323.846ZM329.154 363.771C329.154 363.15 329.275 362.592 329.518 362.096C329.764 361.6 330.104 361.217 330.537 360.947C330.975 360.678 331.473 360.543 332.031 360.543C332.895 360.543 333.592 360.842 334.123 361.439C334.658 362.037 334.926 362.832 334.926 363.824V363.9C334.926 364.518 334.807 365.072 334.568 365.564C334.334 366.053 333.996 366.434 333.555 366.707C333.117 366.98 332.613 367.117 332.043 367.117C331.184 367.117 330.486 366.818 329.951 366.221C329.42 365.623 329.154 364.832 329.154 363.848V363.771ZM330.244 363.9C330.244 364.604 330.406 365.168 330.73 365.594C331.059 366.02 331.496 366.232 332.043 366.232C332.594 366.232 333.031 366.018 333.355 365.588C333.68 365.154 333.842 364.549 333.842 363.771C333.842 363.076 333.676 362.514 333.344 362.084C333.016 361.65 332.578 361.434 332.031 361.434C331.496 361.434 331.064 361.646 330.736 362.072C330.408 362.498 330.244 363.107 330.244 363.9ZM336.021 363.777C336.021 362.805 336.252 362.023 336.713 361.434C337.174 360.84 337.777 360.543 338.523 360.543C339.266 360.543 339.854 360.797 340.287 361.305V358H341.371V367H340.375L340.322 366.32C339.889 366.852 339.285 367.117 338.512 367.117C337.777 367.117 337.178 366.816 336.713 366.215C336.252 365.613 336.021 364.828 336.021 363.859V363.777ZM337.105 363.9C337.105 364.619 337.254 365.182 337.551 365.588C337.848 365.994 338.258 366.197 338.781 366.197C339.469 366.197 339.971 365.889 340.287 365.271V362.359C339.963 361.762 339.465 361.463 338.793 361.463C338.262 361.463 337.848 361.668 337.551 362.078C337.254 362.488 337.105 363.096 337.105 363.9ZM345.689 367.117C344.83 367.117 344.131 366.836 343.592 366.273C343.053 365.707 342.783 364.951 342.783 364.006V363.807C342.783 363.178 342.902 362.617 343.141 362.125C343.383 361.629 343.719 361.242 344.148 360.965C344.582 360.684 345.051 360.543 345.555 360.543C346.379 360.543 347.02 360.814 347.477 361.357C347.934 361.9 348.162 362.678 348.162 363.689V364.141H343.867C343.883 364.766 344.064 365.271 344.412 365.658C344.764 366.041 345.209 366.232 345.748 366.232C346.131 366.232 346.455 366.154 346.721 365.998C346.986 365.842 347.219 365.635 347.418 365.377L348.08 365.893C347.549 366.709 346.752 367.117 345.689 367.117ZM345.555 361.434C345.117 361.434 344.75 361.594 344.453 361.914C344.156 362.23 343.973 362.676 343.902 363.25H347.078V363.168C347.047 362.617 346.898 362.191 346.633 361.891C346.367 361.586 346.008 361.434 345.555 361.434ZM349.445 366.432C349.445 366.244 349.5 366.088 349.609 365.963C349.723 365.838 349.891 365.775 350.113 365.775C350.336 365.775 350.504 365.838 350.617 365.963C350.734 366.088 350.793 366.244 350.793 366.432C350.793 366.611 350.734 366.762 350.617 366.883C350.504 367.004 350.336 367.064 350.113 367.064C349.891 367.064 349.723 367.004 349.609 366.883C349.5 366.762 349.445 366.611 349.445 366.432ZM353.705 360.66V367.732C353.705 368.951 353.152 369.561 352.047 369.561C351.809 369.561 351.588 369.525 351.385 369.455V368.588C351.51 368.619 351.674 368.635 351.877 368.635C352.119 368.635 352.303 368.568 352.428 368.436C352.557 368.307 352.621 368.08 352.621 367.756V360.66H353.705ZM352.51 358.979C352.51 358.807 352.562 358.66 352.668 358.539C352.777 358.414 352.936 358.352 353.143 358.352C353.354 358.352 353.514 358.412 353.623 358.533C353.732 358.654 353.787 358.803 353.787 358.979C353.787 359.154 353.732 359.301 353.623 359.418C353.514 359.535 353.354 359.594 353.143 359.594C352.932 359.594 352.773 359.535 352.668 359.418C352.562 359.301 352.51 359.154 352.51 358.979ZM359.148 365.318C359.148 365.025 359.037 364.799 358.814 364.639C358.596 364.475 358.211 364.334 357.66 364.217C357.113 364.1 356.678 363.959 356.354 363.795C356.033 363.631 355.795 363.436 355.639 363.209C355.486 362.982 355.41 362.713 355.41 362.4C355.41 361.881 355.629 361.441 356.066 361.082C356.508 360.723 357.07 360.543 357.754 360.543C358.473 360.543 359.055 360.729 359.5 361.1C359.949 361.471 360.174 361.945 360.174 362.523H359.084C359.084 362.227 358.957 361.971 358.703 361.756C358.453 361.541 358.137 361.434 357.754 361.434C357.359 361.434 357.051 361.52 356.828 361.691C356.605 361.863 356.494 362.088 356.494 362.365C356.494 362.627 356.598 362.824 356.805 362.957C357.012 363.09 357.385 363.217 357.924 363.338C358.467 363.459 358.906 363.604 359.242 363.771C359.578 363.939 359.826 364.143 359.986 364.381C360.15 364.615 360.232 364.902 360.232 365.242C360.232 365.809 360.006 366.264 359.553 366.607C359.1 366.947 358.512 367.117 357.789 367.117C357.281 367.117 356.832 367.027 356.441 366.848C356.051 366.668 355.744 366.418 355.521 366.098C355.303 365.773 355.193 365.424 355.193 365.049H356.277C356.297 365.412 356.441 365.701 356.711 365.916C356.984 366.127 357.344 366.232 357.789 366.232C358.199 366.232 358.527 366.15 358.773 365.986C359.023 365.818 359.148 365.596 359.148 365.318Z" fill="black"/>
<path d="M234.327 46L90 152.504M234.327 46L378 152.504M234.327 46V202.815M90 152.504L150.082 325M90 152.504L234.327 202.815M150.082 325H321.837M150.082 325L234.327 202.815M321.837 325L378 152.504M321.837 325L234.327 202.815M378 152.504L234.327 202.815" stroke="black"/>
<path d="M240 202.5C240 205.538 237.538 208 234.5 208C231.462 208 229 205.538 229 202.5C229 199.462 231.462 197 234.5 197C237.538 197 240 199.462 240 202.5Z" fill="black"/>
<path d="M237 172C237 173.657 235.657 175 234 175C232.343 175 231 173.657 231 172C231 170.343 232.343 169 234 169C235.657 169 237 170.343 237 172Z" fill="black"/>
<path d="M268 192C268 193.657 266.657 195 265 195C263.343 195 262 193.657 262 192C262 190.343 263.343 189 265 189C266.657 189 268 190.343 268 192Z" fill="black"/>
<path d="M297 182C297 183.657 295.657 185 294 185C292.343 185 291 183.657 291 182C291 180.343 292.343 179 294 179C295.657 179 297 180.343 297 182Z" fill="black"/>
<path d="M326 172.5C326 174.985 323.985 177 321.5 177C319.015 177 317 174.985 317 172.5C317 170.015 319.015 168 321.5 168C323.985 168 326 170.015 326 172.5Z" fill="black"/>
<path d="M353 163C353 164.657 351.657 166 350 166C348.343 166 347 164.657 347 163C347 161.343 348.343 160 350 160C351.657 160 353 161.343 353 163Z" fill="black"/>
<path d="M207 192C207 193.657 205.657 195 204 195C202.343 195 201 193.657 201 192C201 190.343 202.343 189 204 189C205.657 189 207 190.343 207 192Z" fill="black"/>
<path d="M218 230C218 231.657 216.657 233 215 233C213.343 233 212 231.657 212 230C212 228.343 213.343 227 215 227C216.657 227 218 228.343 218 230Z" fill="black"/>
<path d="M257 230C257 231.657 255.657 233 254 233C252.343 233 251 231.657 251 230C251 228.343 252.343 227 254 227C255.657 227 257 228.343 257 230Z" fill="black"/>
<path d="M203 254.5C203 256.985 200.985 259 198.5 259C196.015 259 194 256.985 194 254.5C194 252.015 196.015 250 198.5 250C200.985 250 203 252.015 203 254.5Z" fill="black"/>
<path d="M275 255C275 256.657 273.657 258 272 258C270.343 258 269 256.657 269 255C269 253.343 270.343 252 272 252C273.657 252 275 253.343 275 255Z" fill="black"/>
<path d="M184 280C184 281.657 182.657 283 181 283C179.343 283 178 281.657 178 280C178 278.343 179.343 277 181 277C182.657 277 184 278.343 184 280Z" fill="black"/>
<path d="M137 423C137 424.657 135.657 426 134 426C132.343 426 131 424.657 131 423C131 421.343 132.343 420 134 420C135.657 420 137 421.343 137 423Z" fill="black"/>
<path d="M187 423C187 424.657 185.657 426 184 426C182.343 426 181 424.657 181 423C181 421.343 182.343 420 184 420C185.657 420 187 421.343 187 423Z" fill="black"/>
<path d="M237 423C237 424.657 235.657 426 234 426C232.343 426 231 424.657 231 423C231 421.343 232.343 420 234 420C235.657 420 237 421.343 237 423Z" fill="black"/>
<path d="M337 423C337 424.657 335.657 426 334 426C332.343 426 331 424.657 331 423C331 421.343 332.343 420 334 420C335.657 420 337 421.343 337 423Z" fill="black"/>
<path d="M287 423C287 424.657 285.657 426 284 426C282.343 426 281 424.657 281 423C281 421.343 282.343 420 284 420C285.657 420 287 421.343 287 423Z" fill="black"/>
<path d="M292 280C292 281.657 290.657 283 289 283C287.343 283 286 281.657 286 280C286 278.343 287.343 277 289 277C290.657 277 292 278.343 292 280Z" fill="black"/>
<path d="M168 303C168 304.657 166.657 306 165 306C163.343 306 162 304.657 162 303C162 301.343 163.343 300 165 300C166.657 300 168 301.343 168 303Z" fill="black"/>
<path d="M168 303C168 304.657 166.657 306 165 306C163.343 306 162 304.657 162 303C162 301.343 163.343 300 165 300C166.657 300 168 301.343 168 303Z" fill="black"/>
<path d="M310 302.5C310 304.985 307.985 307 305.5 307C303.015 307 301 304.985 301 302.5C301 300.015 303.015 298 305.5 298C307.985 298 310 300.015 310 302.5Z" fill="black"/>
<path d="M181 182.5C181 184.985 178.985 187 176.5 187C174.015 187 172 184.985 172 182.5C172 180.015 174.015 178 176.5 178C178.985 178 181 180.015 181 182.5Z" fill="black"/>
<path d="M151 173C151 174.657 149.657 176 148 176C146.343 176 145 174.657 145 173C145 171.343 146.343 170 148 170C149.657 170 151 171.343 151 173Z" fill="black"/>
<path d="M122 163C122 164.657 120.657 166 119 166C117.343 166 116 164.657 116 163C116 161.343 117.343 160 119 160C120.657 160 122 161.343 122 163Z" fill="black"/>
<path d="M237 142C237 143.657 235.657 145 234 145C232.343 145 231 143.657 231 142C231 140.343 232.343 139 234 139C235.657 139 237 140.343 237 142Z" fill="black"/>
<path d="M237 112C237 113.657 235.657 115 234 115C232.343 115 231 113.657 231 112C231 110.343 232.343 109 234 109C235.657 109 237 110.343 237 112Z" fill="black"/>
<path d="M239 78.5C239 80.9853 236.985 83 234.5 83C232.015 83 230 80.9853 230 78.5C230 76.0147 232.015 74 234.5 74C236.985 74 239 76.0147 239 78.5Z" fill="black"/>
<path d="M175.5 182L235 78.5L322 172.5L306 304.5L198.5 254.5L175.5 182Z" fill="#C4C4C4" fill-opacity="0.4" stroke="black"/>
<path d="M132 423H334" stroke="black"/>
<path d="M117.188 402.9C117.188 403.869 116.965 404.648 116.52 405.238C116.074 405.824 115.477 406.117 114.727 406.117C113.926 406.117 113.307 405.834 112.869 405.268L112.816 406H111.82V397H112.904V400.357C113.342 399.814 113.945 399.543 114.715 399.543C115.484 399.543 116.088 399.834 116.525 400.416C116.967 400.998 117.188 401.795 117.188 402.807V402.9ZM116.104 402.777C116.104 402.039 115.961 401.469 115.676 401.066C115.391 400.664 114.98 400.463 114.445 400.463C113.73 400.463 113.217 400.795 112.904 401.459V404.201C113.236 404.865 113.754 405.197 114.457 405.197C114.977 405.197 115.381 404.996 115.67 404.594C115.959 404.191 116.104 403.586 116.104 402.777ZM121.189 406.117C120.33 406.117 119.631 405.836 119.092 405.273C118.553 404.707 118.283 403.951 118.283 403.006V402.807C118.283 402.178 118.402 401.617 118.641 401.125C118.883 400.629 119.219 400.242 119.648 399.965C120.082 399.684 120.551 399.543 121.055 399.543C121.879 399.543 122.52 399.814 122.977 400.357C123.434 400.9 123.662 401.678 123.662 402.689V403.141H119.367C119.383 403.766 119.564 404.271 119.912 404.658C120.264 405.041 120.709 405.232 121.248 405.232C121.631 405.232 121.955 405.154 122.221 404.998C122.486 404.842 122.719 404.635 122.918 404.377L123.58 404.893C123.049 405.709 122.252 406.117 121.189 406.117ZM121.055 400.434C120.617 400.434 120.25 400.594 119.953 400.914C119.656 401.23 119.473 401.676 119.402 402.25H122.578V402.168C122.547 401.617 122.398 401.191 122.133 400.891C121.867 400.586 121.508 400.434 121.055 400.434ZM124.664 402.777C124.664 401.789 124.893 401.004 125.35 400.422C125.807 399.836 126.412 399.543 127.166 399.543C127.939 399.543 128.543 399.816 128.977 400.363L129.029 399.66H130.02V405.848C130.02 406.668 129.775 407.314 129.287 407.787C128.803 408.26 128.15 408.496 127.33 408.496C126.873 408.496 126.426 408.398 125.988 408.203C125.551 408.008 125.217 407.74 124.986 407.4L125.549 406.75C126.014 407.324 126.582 407.611 127.254 407.611C127.781 407.611 128.191 407.463 128.484 407.166C128.781 406.869 128.93 406.451 128.93 405.912V405.367C128.496 405.867 127.904 406.117 127.154 406.117C126.412 406.117 125.811 405.818 125.35 405.221C124.893 404.623 124.664 403.809 124.664 402.777ZM125.754 402.9C125.754 403.615 125.9 404.178 126.193 404.588C126.486 404.994 126.896 405.197 127.424 405.197C128.107 405.197 128.609 404.887 128.93 404.266V401.371C128.598 400.766 128.1 400.463 127.436 400.463C126.908 400.463 126.496 400.668 126.199 401.078C125.902 401.488 125.754 402.096 125.754 402.9ZM132.838 406H131.754V399.66H132.838V406ZM131.666 397.979C131.666 397.803 131.719 397.654 131.824 397.533C131.934 397.412 132.094 397.352 132.305 397.352C132.516 397.352 132.676 397.412 132.785 397.533C132.895 397.654 132.949 397.803 132.949 397.979C132.949 398.154 132.895 398.301 132.785 398.418C132.676 398.535 132.516 398.594 132.305 398.594C132.094 398.594 131.934 398.535 131.824 398.418C131.719 398.301 131.666 398.154 131.666 397.979ZM135.604 399.66L135.639 400.457C136.123 399.848 136.756 399.543 137.537 399.543C138.877 399.543 139.553 400.299 139.564 401.811V406H138.48V401.805C138.477 401.348 138.371 401.01 138.164 400.791C137.961 400.572 137.643 400.463 137.209 400.463C136.857 400.463 136.549 400.557 136.283 400.744C136.018 400.932 135.811 401.178 135.662 401.482V406H134.578V399.66H135.604ZM142.225 399.66L142.26 400.457C142.744 399.848 143.377 399.543 144.158 399.543C145.498 399.543 146.174 400.299 146.186 401.811V406H145.102V401.805C145.098 401.348 144.992 401.01 144.785 400.791C144.582 400.572 144.264 400.463 143.83 400.463C143.479 400.463 143.17 400.557 142.904 400.744C142.639 400.932 142.432 401.178 142.283 401.482V406H141.199V399.66H142.225ZM150.451 406.117C149.592 406.117 148.893 405.836 148.354 405.273C147.814 404.707 147.545 403.951 147.545 403.006V402.807C147.545 402.178 147.664 401.617 147.902 401.125C148.145 400.629 148.48 400.242 148.91 399.965C149.344 399.684 149.812 399.543 150.316 399.543C151.141 399.543 151.781 399.814 152.238 400.357C152.695 400.9 152.924 401.678 152.924 402.689V403.141H148.629C148.645 403.766 148.826 404.271 149.174 404.658C149.525 405.041 149.971 405.232 150.51 405.232C150.893 405.232 151.217 405.154 151.482 404.998C151.748 404.842 151.98 404.635 152.18 404.377L152.842 404.893C152.311 405.709 151.514 406.117 150.451 406.117ZM150.316 400.434C149.879 400.434 149.512 400.594 149.215 400.914C148.918 401.23 148.734 401.676 148.664 402.25H151.84V402.168C151.809 401.617 151.66 401.191 151.395 400.891C151.129 400.586 150.77 400.434 150.316 400.434ZM157.248 400.633C157.084 400.605 156.906 400.592 156.715 400.592C156.004 400.592 155.521 400.895 155.268 401.5V406H154.184V399.66H155.238L155.256 400.393C155.611 399.826 156.115 399.543 156.768 399.543C156.979 399.543 157.139 399.57 157.248 399.625V400.633Z" fill="black"/>
<path d="M149.354 451V445.498H148.352V444.66H149.354V444.01C149.354 443.33 149.535 442.805 149.898 442.434C150.262 442.062 150.775 441.877 151.439 441.877C151.689 441.877 151.938 441.91 152.184 441.977L152.125 442.855C151.941 442.82 151.746 442.803 151.539 442.803C151.188 442.803 150.916 442.906 150.725 443.113C150.533 443.316 150.438 443.609 150.438 443.992V444.66H151.791V445.498H150.438V451H149.354ZM152.705 447.771C152.705 447.15 152.826 446.592 153.068 446.096C153.314 445.6 153.654 445.217 154.088 444.947C154.525 444.678 155.023 444.543 155.582 444.543C156.445 444.543 157.143 444.842 157.674 445.439C158.209 446.037 158.477 446.832 158.477 447.824V447.9C158.477 448.518 158.357 449.072 158.119 449.564C157.885 450.053 157.547 450.434 157.105 450.707C156.668 450.98 156.164 451.117 155.594 451.117C154.734 451.117 154.037 450.818 153.502 450.221C152.971 449.623 152.705 448.832 152.705 447.848V447.771ZM153.795 447.9C153.795 448.604 153.957 449.168 154.281 449.594C154.609 450.02 155.047 450.232 155.594 450.232C156.145 450.232 156.582 450.018 156.906 449.588C157.23 449.154 157.393 448.549 157.393 447.771C157.393 447.076 157.227 446.514 156.895 446.084C156.566 445.65 156.129 445.434 155.582 445.434C155.047 445.434 154.615 445.646 154.287 446.072C153.959 446.498 153.795 447.107 153.795 447.9ZM163.75 450.373C163.328 450.869 162.709 451.117 161.893 451.117C161.217 451.117 160.701 450.922 160.346 450.531C159.994 450.137 159.816 449.555 159.812 448.785V444.66H160.896V448.756C160.896 449.717 161.287 450.197 162.068 450.197C162.896 450.197 163.447 449.889 163.721 449.271V444.66H164.805V451H163.773L163.75 450.373ZM167.482 444.66L167.518 445.457C168.002 444.848 168.635 444.543 169.416 444.543C170.756 444.543 171.432 445.299 171.443 446.811V451H170.359V446.805C170.355 446.348 170.25 446.01 170.043 445.791C169.84 445.572 169.521 445.463 169.088 445.463C168.736 445.463 168.428 445.557 168.162 445.744C167.896 445.932 167.689 446.178 167.541 446.482V451H166.457V444.66H167.482ZM172.814 447.777C172.814 446.805 173.045 446.023 173.506 445.434C173.967 444.84 174.57 444.543 175.316 444.543C176.059 444.543 176.646 444.797 177.08 445.305V442H178.164V451H177.168L177.115 450.32C176.682 450.852 176.078 451.117 175.305 451.117C174.57 451.117 173.971 450.816 173.506 450.215C173.045 449.613 172.814 448.828 172.814 447.859V447.777ZM173.898 447.9C173.898 448.619 174.047 449.182 174.344 449.588C174.641 449.994 175.051 450.197 175.574 450.197C176.262 450.197 176.764 449.889 177.08 449.271V446.359C176.756 445.762 176.258 445.463 175.586 445.463C175.055 445.463 174.641 445.668 174.344 446.078C174.047 446.488 173.898 447.096 173.898 447.9ZM183.766 451C183.703 450.875 183.652 450.652 183.613 450.332C183.109 450.855 182.508 451.117 181.809 451.117C181.184 451.117 180.67 450.941 180.268 450.59C179.869 450.234 179.67 449.785 179.67 449.242C179.67 448.582 179.92 448.07 180.42 447.707C180.924 447.34 181.631 447.156 182.541 447.156H183.596V446.658C183.596 446.279 183.482 445.979 183.256 445.756C183.029 445.529 182.695 445.416 182.254 445.416C181.867 445.416 181.543 445.514 181.281 445.709C181.02 445.904 180.889 446.141 180.889 446.418H179.799C179.799 446.102 179.91 445.797 180.133 445.504C180.359 445.207 180.664 444.973 181.047 444.801C181.434 444.629 181.857 444.543 182.318 444.543C183.049 444.543 183.621 444.727 184.035 445.094C184.449 445.457 184.664 445.959 184.68 446.6V449.518C184.68 450.1 184.754 450.562 184.902 450.906V451H183.766ZM181.967 450.174C182.307 450.174 182.629 450.086 182.934 449.91C183.238 449.734 183.459 449.506 183.596 449.225V447.924H182.746C181.418 447.924 180.754 448.312 180.754 449.09C180.754 449.43 180.867 449.695 181.094 449.887C181.32 450.078 181.611 450.174 181.967 450.174ZM187.85 443.125V444.66H189.033V445.498H187.85V449.43C187.85 449.684 187.902 449.875 188.008 450.004C188.113 450.129 188.293 450.191 188.547 450.191C188.672 450.191 188.844 450.168 189.062 450.121V451C188.777 451.078 188.5 451.117 188.23 451.117C187.746 451.117 187.381 450.971 187.135 450.678C186.889 450.385 186.766 449.969 186.766 449.43V445.498H185.611V444.66H186.766V443.125H187.85ZM191.482 451H190.398V444.66H191.482V451ZM190.311 442.979C190.311 442.803 190.363 442.654 190.469 442.533C190.578 442.412 190.738 442.352 190.949 442.352C191.16 442.352 191.32 442.412 191.43 442.533C191.539 442.654 191.594 442.803 191.594 442.979C191.594 443.154 191.539 443.301 191.43 443.418C191.32 443.535 191.16 443.594 190.949 443.594C190.738 443.594 190.578 443.535 190.469 443.418C190.363 443.301 190.311 443.154 190.311 442.979ZM192.936 447.771C192.936 447.15 193.057 446.592 193.299 446.096C193.545 445.6 193.885 445.217 194.318 444.947C194.756 444.678 195.254 444.543 195.812 444.543C196.676 444.543 197.373 444.842 197.904 445.439C198.439 446.037 198.707 446.832 198.707 447.824V447.9C198.707 448.518 198.588 449.072 198.35 449.564C198.115 450.053 197.777 450.434 197.336 450.707C196.898 450.98 196.395 451.117 195.824 451.117C194.965 451.117 194.268 450.818 193.732 450.221C193.201 449.623 192.936 448.832 192.936 447.848V447.771ZM194.025 447.9C194.025 448.604 194.188 449.168 194.512 449.594C194.84 450.02 195.277 450.232 195.824 450.232C196.375 450.232 196.812 450.018 197.137 449.588C197.461 449.154 197.623 448.549 197.623 447.771C197.623 447.076 197.457 446.514 197.125 446.084C196.797 445.65 196.359 445.434 195.812 445.434C195.277 445.434 194.846 445.646 194.518 446.072C194.189 446.498 194.025 447.107 194.025 447.9ZM201.092 444.66L201.127 445.457C201.611 444.848 202.244 444.543 203.025 444.543C204.365 444.543 205.041 445.299 205.053 446.811V451H203.969V446.805C203.965 446.348 203.859 446.01 203.652 445.791C203.449 445.572 203.131 445.463 202.697 445.463C202.346 445.463 202.037 445.557 201.771 445.744C201.506 445.932 201.299 446.178 201.15 446.482V451H200.066V444.66H201.092ZM210.602 451C210.539 450.875 210.488 450.652 210.449 450.332C209.945 450.855 209.344 451.117 208.645 451.117C208.02 451.117 207.506 450.941 207.104 450.59C206.705 450.234 206.506 449.785 206.506 449.242C206.506 448.582 206.756 448.07 207.256 447.707C207.76 447.34 208.467 447.156 209.377 447.156H210.432V446.658C210.432 446.279 210.318 445.979 210.092 445.756C209.865 445.529 209.531 445.416 209.09 445.416C208.703 445.416 208.379 445.514 208.117 445.709C207.855 445.904 207.725 446.141 207.725 446.418H206.635C206.635 446.102 206.746 445.797 206.969 445.504C207.195 445.207 207.5 444.973 207.883 444.801C208.27 444.629 208.693 444.543 209.154 444.543C209.885 444.543 210.457 444.727 210.871 445.094C211.285 445.457 211.5 445.959 211.516 446.6V449.518C211.516 450.1 211.59 450.562 211.738 450.906V451H210.602ZM208.803 450.174C209.143 450.174 209.465 450.086 209.77 449.91C210.074 449.734 210.295 449.506 210.432 449.225V447.924H209.582C208.254 447.924 207.59 448.312 207.59 449.09C207.59 449.43 207.703 449.695 207.93 449.887C208.156 450.078 208.447 450.174 208.803 450.174ZM214.393 451H213.309V442H214.393V451Z" fill="black"/>
<path d="M201.998 406H200.914V399.66H201.998V406ZM200.826 397.979C200.826 397.803 200.879 397.654 200.984 397.533C201.094 397.412 201.254 397.352 201.465 397.352C201.676 397.352 201.836 397.412 201.945 397.533C202.055 397.654 202.109 397.803 202.109 397.979C202.109 398.154 202.055 398.301 201.945 398.418C201.836 398.535 201.676 398.594 201.465 398.594C201.254 398.594 201.094 398.535 200.984 398.418C200.879 398.301 200.826 398.154 200.826 397.979ZM204.764 399.66L204.799 400.457C205.283 399.848 205.916 399.543 206.697 399.543C208.037 399.543 208.713 400.299 208.725 401.811V406H207.641V401.805C207.637 401.348 207.531 401.01 207.324 400.791C207.121 400.572 206.803 400.463 206.369 400.463C206.018 400.463 205.709 400.557 205.443 400.744C205.178 400.932 204.971 401.178 204.822 401.482V406H203.738V399.66H204.764ZM211.83 398.125V399.66H213.014V400.498H211.83V404.43C211.83 404.684 211.883 404.875 211.988 405.004C212.094 405.129 212.273 405.191 212.527 405.191C212.652 405.191 212.824 405.168 213.043 405.121V406C212.758 406.078 212.48 406.117 212.211 406.117C211.727 406.117 211.361 405.971 211.115 405.678C210.869 405.385 210.746 404.969 210.746 404.43V400.498H209.592V399.66H210.746V398.125H211.83ZM216.916 406.117C216.057 406.117 215.357 405.836 214.818 405.273C214.279 404.707 214.01 403.951 214.01 403.006V402.807C214.01 402.178 214.129 401.617 214.367 401.125C214.609 400.629 214.945 400.242 215.375 399.965C215.809 399.684 216.277 399.543 216.781 399.543C217.605 399.543 218.246 399.814 218.703 400.357C219.16 400.9 219.389 401.678 219.389 402.689V403.141H215.094C215.109 403.766 215.291 404.271 215.639 404.658C215.99 405.041 216.436 405.232 216.975 405.232C217.357 405.232 217.682 405.154 217.947 404.998C218.213 404.842 218.445 404.635 218.645 404.377L219.307 404.893C218.775 405.709 217.979 406.117 216.916 406.117ZM216.781 400.434C216.344 400.434 215.977 400.594 215.68 400.914C215.383 401.23 215.199 401.676 215.129 402.25H218.305V402.168C218.273 401.617 218.125 401.191 217.859 400.891C217.594 400.586 217.234 400.434 216.781 400.434ZM223.713 400.633C223.549 400.605 223.371 400.592 223.18 400.592C222.469 400.592 221.986 400.895 221.732 401.5V406H220.648V399.66H221.703L221.721 400.393C222.076 399.826 222.58 399.543 223.232 399.543C223.443 399.543 223.604 399.57 223.713 399.625V400.633ZM225.734 399.66L225.764 400.363C226.229 399.816 226.855 399.543 227.645 399.543C228.531 399.543 229.135 399.883 229.455 400.562C229.666 400.258 229.939 400.012 230.275 399.824C230.615 399.637 231.016 399.543 231.477 399.543C232.867 399.543 233.574 400.279 233.598 401.752V406H232.514V401.816C232.514 401.363 232.41 401.025 232.203 400.803C231.996 400.576 231.648 400.463 231.16 400.463C230.758 400.463 230.424 400.584 230.158 400.826C229.893 401.064 229.738 401.387 229.695 401.793V406H228.605V401.846C228.605 400.924 228.154 400.463 227.252 400.463C226.541 400.463 226.055 400.766 225.793 401.371V406H224.709V399.66H225.734ZM237.869 406.117C237.01 406.117 236.311 405.836 235.771 405.273C235.232 404.707 234.963 403.951 234.963 403.006V402.807C234.963 402.178 235.082 401.617 235.32 401.125C235.562 400.629 235.898 400.242 236.328 399.965C236.762 399.684 237.23 399.543 237.734 399.543C238.559 399.543 239.199 399.814 239.656 400.357C240.113 400.9 240.342 401.678 240.342 402.689V403.141H236.047C236.062 403.766 236.244 404.271 236.592 404.658C236.943 405.041 237.389 405.232 237.928 405.232C238.311 405.232 238.635 405.154 238.9 404.998C239.166 404.842 239.398 404.635 239.598 404.377L240.26 404.893C239.729 405.709 238.932 406.117 237.869 406.117ZM237.734 400.434C237.297 400.434 236.93 400.594 236.633 400.914C236.336 401.23 236.152 401.676 236.082 402.25H239.258V402.168C239.227 401.617 239.078 401.191 238.812 400.891C238.547 400.586 238.188 400.434 237.734 400.434ZM241.338 402.777C241.338 401.805 241.568 401.023 242.029 400.434C242.49 399.84 243.094 399.543 243.84 399.543C244.582 399.543 245.17 399.797 245.604 400.305V397H246.688V406H245.691L245.639 405.32C245.205 405.852 244.602 406.117 243.828 406.117C243.094 406.117 242.494 405.816 242.029 405.215C241.568 404.613 241.338 403.828 241.338 402.859V402.777ZM242.422 402.9C242.422 403.619 242.57 404.182 242.867 404.588C243.164 404.994 243.574 405.197 244.098 405.197C244.785 405.197 245.287 404.889 245.604 404.271V401.359C245.279 400.762 244.781 400.463 244.109 400.463C243.578 400.463 243.164 400.668 242.867 401.078C242.57 401.488 242.422 402.096 242.422 402.9ZM249.553 406H248.469V399.66H249.553V406ZM248.381 397.979C248.381 397.803 248.434 397.654 248.539 397.533C248.648 397.412 248.809 397.352 249.02 397.352C249.23 397.352 249.391 397.412 249.5 397.533C249.609 397.654 249.664 397.803 249.664 397.979C249.664 398.154 249.609 398.301 249.5 398.418C249.391 398.535 249.23 398.594 249.02 398.594C248.809 398.594 248.648 398.535 248.539 398.418C248.434 398.301 248.381 398.154 248.381 397.979ZM255.207 406C255.145 405.875 255.094 405.652 255.055 405.332C254.551 405.855 253.949 406.117 253.25 406.117C252.625 406.117 252.111 405.941 251.709 405.59C251.311 405.234 251.111 404.785 251.111 404.242C251.111 403.582 251.361 403.07 251.861 402.707C252.365 402.34 253.072 402.156 253.982 402.156H255.037V401.658C255.037 401.279 254.924 400.979 254.697 400.756C254.471 400.529 254.137 400.416 253.695 400.416C253.309 400.416 252.984 400.514 252.723 400.709C252.461 400.904 252.33 401.141 252.33 401.418H251.24C251.24 401.102 251.352 400.797 251.574 400.504C251.801 400.207 252.105 399.973 252.488 399.801C252.875 399.629 253.299 399.543 253.76 399.543C254.49 399.543 255.062 399.727 255.477 400.094C255.891 400.457 256.105 400.959 256.121 401.6V404.518C256.121 405.1 256.195 405.562 256.344 405.906V406H255.207ZM253.408 405.174C253.748 405.174 254.07 405.086 254.375 404.91C254.68 404.734 254.9 404.506 255.037 404.225V402.924H254.188C252.859 402.924 252.195 403.312 252.195 404.09C252.195 404.43 252.309 404.695 252.535 404.887C252.762 405.078 253.053 405.174 253.408 405.174ZM259.291 398.125V399.66H260.475V400.498H259.291V404.43C259.291 404.684 259.344 404.875 259.449 405.004C259.555 405.129 259.734 405.191 259.988 405.191C260.113 405.191 260.285 405.168 260.504 405.121V406C260.219 406.078 259.941 406.117 259.672 406.117C259.188 406.117 258.822 405.971 258.576 405.678C258.33 405.385 258.207 404.969 258.207 404.43V400.498H257.053V399.66H258.207V398.125H259.291ZM264.377 406.117C263.518 406.117 262.818 405.836 262.279 405.273C261.74 404.707 261.471 403.951 261.471 403.006V402.807C261.471 402.178 261.59 401.617 261.828 401.125C262.07 400.629 262.406 400.242 262.836 399.965C263.27 399.684 263.738 399.543 264.242 399.543C265.066 399.543 265.707 399.814 266.164 400.357C266.621 400.9 266.85 401.678 266.85 402.689V403.141H262.555C262.57 403.766 262.752 404.271 263.1 404.658C263.451 405.041 263.896 405.232 264.436 405.232C264.818 405.232 265.143 405.154 265.408 404.998C265.674 404.842 265.906 404.635 266.105 404.377L266.768 404.893C266.236 405.709 265.439 406.117 264.377 406.117ZM264.242 400.434C263.805 400.434 263.438 400.594 263.141 400.914C262.844 401.23 262.66 401.676 262.59 402.25H265.766V402.168C265.734 401.617 265.586 401.191 265.32 400.891C265.055 400.586 264.695 400.434 264.242 400.434Z" fill="black"/>
<path d="M262.734 451C262.672 450.875 262.621 450.652 262.582 450.332C262.078 450.855 261.477 451.117 260.777 451.117C260.152 451.117 259.639 450.941 259.236 450.59C258.838 450.234 258.639 449.785 258.639 449.242C258.639 448.582 258.889 448.07 259.389 447.707C259.893 447.34 260.6 447.156 261.51 447.156H262.564V446.658C262.564 446.279 262.451 445.979 262.225 445.756C261.998 445.529 261.664 445.416 261.223 445.416C260.836 445.416 260.512 445.514 260.25 445.709C259.988 445.904 259.857 446.141 259.857 446.418H258.768C258.768 446.102 258.879 445.797 259.102 445.504C259.328 445.207 259.633 444.973 260.016 444.801C260.402 444.629 260.826 444.543 261.287 444.543C262.018 444.543 262.59 444.727 263.004 445.094C263.418 445.457 263.633 445.959 263.648 446.6V449.518C263.648 450.1 263.723 450.562 263.871 450.906V451H262.734ZM260.936 450.174C261.275 450.174 261.598 450.086 261.902 449.91C262.207 449.734 262.428 449.506 262.564 449.225V447.924H261.715C260.387 447.924 259.723 448.312 259.723 449.09C259.723 449.43 259.836 449.695 260.062 449.887C260.289 450.078 260.58 450.174 260.936 450.174ZM265.084 447.777C265.084 446.805 265.314 446.023 265.775 445.434C266.236 444.84 266.84 444.543 267.586 444.543C268.328 444.543 268.916 444.797 269.35 445.305V442H270.434V451H269.438L269.385 450.32C268.951 450.852 268.348 451.117 267.574 451.117C266.84 451.117 266.24 450.816 265.775 450.215C265.314 449.613 265.084 448.828 265.084 447.859V447.777ZM266.168 447.9C266.168 448.619 266.316 449.182 266.613 449.588C266.91 449.994 267.32 450.197 267.844 450.197C268.531 450.197 269.033 449.889 269.35 449.271V446.359C269.025 445.762 268.527 445.463 267.855 445.463C267.324 445.463 266.91 445.668 266.613 446.078C266.316 446.488 266.168 447.096 266.168 447.9ZM274.213 449.529L275.783 444.66H276.891L274.617 451H273.791L271.494 444.66H272.602L274.213 449.529ZM281.754 451C281.691 450.875 281.641 450.652 281.602 450.332C281.098 450.855 280.496 451.117 279.797 451.117C279.172 451.117 278.658 450.941 278.256 450.59C277.857 450.234 277.658 449.785 277.658 449.242C277.658 448.582 277.908 448.07 278.408 447.707C278.912 447.34 279.619 447.156 280.529 447.156H281.584V446.658C281.584 446.279 281.471 445.979 281.244 445.756C281.018 445.529 280.684 445.416 280.242 445.416C279.855 445.416 279.531 445.514 279.27 445.709C279.008 445.904 278.877 446.141 278.877 446.418H277.787C277.787 446.102 277.898 445.797 278.121 445.504C278.348 445.207 278.652 444.973 279.035 444.801C279.422 444.629 279.846 444.543 280.307 444.543C281.037 444.543 281.609 444.727 282.023 445.094C282.438 445.457 282.652 445.959 282.668 446.6V449.518C282.668 450.1 282.742 450.562 282.891 450.906V451H281.754ZM279.955 450.174C280.295 450.174 280.617 450.086 280.922 449.91C281.227 449.734 281.447 449.506 281.584 449.225V447.924H280.734C279.406 447.924 278.742 448.312 278.742 449.09C278.742 449.43 278.855 449.695 279.082 449.887C279.309 450.078 279.6 450.174 279.955 450.174ZM285.393 444.66L285.428 445.457C285.912 444.848 286.545 444.543 287.326 444.543C288.666 444.543 289.342 445.299 289.354 446.811V451H288.27V446.805C288.266 446.348 288.16 446.01 287.953 445.791C287.75 445.572 287.432 445.463 286.998 445.463C286.646 445.463 286.338 445.557 286.072 445.744C285.807 445.932 285.6 446.178 285.451 446.482V451H284.367V444.66H285.393ZM293.531 450.232C293.918 450.232 294.256 450.115 294.545 449.881C294.834 449.646 294.994 449.354 295.025 449.002H296.051C296.031 449.365 295.906 449.711 295.676 450.039C295.445 450.367 295.137 450.629 294.75 450.824C294.367 451.02 293.961 451.117 293.531 451.117C292.668 451.117 291.98 450.83 291.469 450.256C290.961 449.678 290.707 448.889 290.707 447.889V447.707C290.707 447.09 290.82 446.541 291.047 446.061C291.273 445.58 291.598 445.207 292.02 444.941C292.445 444.676 292.947 444.543 293.525 444.543C294.236 444.543 294.826 444.756 295.295 445.182C295.768 445.607 296.02 446.16 296.051 446.84H295.025C294.994 446.43 294.838 446.094 294.557 445.832C294.279 445.566 293.936 445.434 293.525 445.434C292.975 445.434 292.547 445.633 292.242 446.031C291.941 446.426 291.791 446.998 291.791 447.748V447.953C291.791 448.684 291.941 449.246 292.242 449.641C292.543 450.035 292.973 450.232 293.531 450.232ZM299.9 451.117C299.041 451.117 298.342 450.836 297.803 450.273C297.264 449.707 296.994 448.951 296.994 448.006V447.807C296.994 447.178 297.113 446.617 297.352 446.125C297.594 445.629 297.93 445.242 298.359 444.965C298.793 444.684 299.262 444.543 299.766 444.543C300.59 444.543 301.23 444.814 301.688 445.357C302.145 445.9 302.373 446.678 302.373 447.689V448.141H298.078C298.094 448.766 298.275 449.271 298.623 449.658C298.975 450.041 299.42 450.232 299.959 450.232C300.342 450.232 300.666 450.154 300.932 449.998C301.197 449.842 301.43 449.635 301.629 449.377L302.291 449.893C301.76 450.709 300.963 451.117 299.9 451.117ZM299.766 445.434C299.328 445.434 298.961 445.594 298.664 445.914C298.367 446.23 298.184 446.676 298.113 447.25H301.289V447.168C301.258 446.617 301.109 446.191 300.844 445.891C300.578 445.586 300.219 445.434 299.766 445.434ZM303.369 447.777C303.369 446.805 303.6 446.023 304.061 445.434C304.521 444.84 305.125 444.543 305.871 444.543C306.613 444.543 307.201 444.797 307.635 445.305V442H308.719V451H307.723L307.67 450.32C307.236 450.852 306.633 451.117 305.859 451.117C305.125 451.117 304.525 450.816 304.061 450.215C303.6 449.613 303.369 448.828 303.369 447.859V447.777ZM304.453 447.9C304.453 448.619 304.602 449.182 304.898 449.588C305.195 449.994 305.605 450.197 306.129 450.197C306.816 450.197 307.318 449.889 307.635 449.271V446.359C307.311 445.762 306.812 445.463 306.141 445.463C305.609 445.463 305.195 445.668 304.898 446.078C304.602 446.488 304.453 447.096 304.453 447.9Z" fill="black"/>
<path d="M320.451 406.117C319.592 406.117 318.893 405.836 318.354 405.273C317.814 404.707 317.545 403.951 317.545 403.006V402.807C317.545 402.178 317.664 401.617 317.902 401.125C318.145 400.629 318.48 400.242 318.91 399.965C319.344 399.684 319.812 399.543 320.316 399.543C321.141 399.543 321.781 399.814 322.238 400.357C322.695 400.9 322.924 401.678 322.924 402.689V403.141H318.629C318.645 403.766 318.826 404.271 319.174 404.658C319.525 405.041 319.971 405.232 320.51 405.232C320.893 405.232 321.217 405.154 321.482 404.998C321.748 404.842 321.98 404.635 322.18 404.377L322.842 404.893C322.311 405.709 321.514 406.117 320.451 406.117ZM320.316 400.434C319.879 400.434 319.512 400.594 319.215 400.914C318.918 401.23 318.734 401.676 318.664 402.25H321.84V402.168C321.809 401.617 321.66 401.191 321.395 400.891C321.129 400.586 320.77 400.434 320.316 400.434ZM326.311 401.975L327.717 399.66H328.982L326.908 402.795L329.047 406H327.793L326.328 403.627L324.863 406H323.604L325.742 402.795L323.668 399.66H324.922L326.311 401.975ZM335.492 402.9C335.492 403.865 335.271 404.643 334.83 405.232C334.389 405.822 333.791 406.117 333.037 406.117C332.268 406.117 331.662 405.873 331.221 405.385V408.438H330.137V399.66H331.127L331.18 400.363C331.621 399.816 332.234 399.543 333.02 399.543C333.781 399.543 334.383 399.83 334.824 400.404C335.27 400.979 335.492 401.777 335.492 402.801V402.9ZM334.408 402.777C334.408 402.062 334.256 401.498 333.951 401.084C333.646 400.67 333.229 400.463 332.697 400.463C332.041 400.463 331.549 400.754 331.221 401.336V404.365C331.545 404.943 332.041 405.232 332.709 405.232C333.229 405.232 333.641 405.027 333.945 404.617C334.254 404.203 334.408 403.59 334.408 402.777ZM339.506 406.117C338.646 406.117 337.947 405.836 337.408 405.273C336.869 404.707 336.6 403.951 336.6 403.006V402.807C336.6 402.178 336.719 401.617 336.957 401.125C337.199 400.629 337.535 400.242 337.965 399.965C338.398 399.684 338.867 399.543 339.371 399.543C340.195 399.543 340.836 399.814 341.293 400.357C341.75 400.9 341.979 401.678 341.979 402.689V403.141H337.684C337.699 403.766 337.881 404.271 338.229 404.658C338.58 405.041 339.025 405.232 339.564 405.232C339.947 405.232 340.271 405.154 340.537 404.998C340.803 404.842 341.035 404.635 341.234 404.377L341.896 404.893C341.365 405.709 340.568 406.117 339.506 406.117ZM339.371 400.434C338.934 400.434 338.566 400.594 338.27 400.914C337.973 401.23 337.789 401.676 337.719 402.25H340.895V402.168C340.863 401.617 340.715 401.191 340.449 400.891C340.184 400.586 339.824 400.434 339.371 400.434ZM346.303 400.633C346.139 400.605 345.961 400.592 345.77 400.592C345.059 400.592 344.576 400.895 344.322 401.5V406H343.238V399.66H344.293L344.311 400.393C344.666 399.826 345.17 399.543 345.822 399.543C346.033 399.543 346.193 399.57 346.303 399.625V400.633ZM349.068 398.125V399.66H350.252V400.498H349.068V404.43C349.068 404.684 349.121 404.875 349.227 405.004C349.332 405.129 349.512 405.191 349.766 405.191C349.891 405.191 350.062 405.168 350.281 405.121V406C349.996 406.078 349.719 406.117 349.449 406.117C348.965 406.117 348.6 405.971 348.354 405.678C348.107 405.385 347.984 404.969 347.984 404.43V400.498H346.83V399.66H347.984V398.125H349.068Z" fill="black"/>
</svg>
