<svg width="38" height="32" viewBox="0 0 38 32" fill="none" xmlns="http://www.w3.org/2000/svg">
<path d="M1 31V1H37V31H1Z" stroke="black"/>
<path d="M1.5 3.5H37.5" stroke="black"/>
<path d="M1.5 23H19.25M37 23H19.25M19.25 23V30.5" stroke="black"/>
<path d="M10 23V4" stroke="black"/>
<path d="M13.5 7H25.5" stroke="black"/>
<path d="M2.5 6H8.5" stroke="black"/>
<path d="M2.5 8H6.5" stroke="black"/>
<path d="M2.5 10H6.5" stroke="black"/>
<path d="M2.5 13H8.5" stroke="black"/>
<path d="M2.5 15H7.5" stroke="black"/>
<path d="M2.5 17H6.5" stroke="black"/>
<path d="M2.5 19H6.5" stroke="black"/>
<path d="M1 25H37" stroke="black"/>
<path d="M13.5 9H22.5" stroke="black"/>
<path d="M13.5 11H29.5" stroke="black"/>
<path d="M13.5 13H31.5" stroke="black"/>
<path d="M13.5 16H28.5" stroke="black"/>
<path d="M13.5 18H31.5" stroke="black"/>
<path d="M13.5 20H25.5" stroke="black"/>
<path d="M28 3V1" stroke="black"/>
<path d="M31 3V1" stroke="black"/>
<path d="M34 3V1" stroke="black"/>
</svg>
