<svg width="74" height="71" viewBox="0 0 74 71" fill="none" xmlns="http://www.w3.org/2000/svg">
<g clip-path="url(#clip0)">
<g opacity="0.5">
<path opacity="0.5" d="M45.8729 19.2712L45.9548 18.898L45.8399 19.2627C42.8517 18.4389 39.771 18.0149 36.6756 18.0013C14.3729 17.8669 4 37.9836 4 37.9836L25.1354 49.3645C25.1354 49.3645 27.7278 41.1599 36.9348 41.4273C37.5682 41.4452 38.2002 41.501 38.8266 41.5961L36.0254 50.5007C35.5315 51.2179 35.701 52.2083 36.4038 52.7124C37.1065 53.2165 38.0769 53.0434 38.5708 52.3262C38.589 52.2998 38.6066 52.2733 38.6227 52.2462V52.2419C38.7677 52.0009 38.8469 51.7242 38.8518 51.441C38.8518 51.3931 38.8518 51.3452 38.8469 51.298L40.8717 42.0637C46.9042 43.9572 48.7322 49.3645 48.7322 49.3645L70 38.5127C70 38.5127 62.0127 23.7446 45.8729 19.2712Z" fill="url(#paint0_linear)"/>
</g>
<path d="M36.6798 18.2238C14.6616 18.093 4.42038 37.9516 4.42038 37.9516L25.2867 49.1859C25.2867 49.1859 27.8469 41.0857 36.9362 41.3467C37.5766 41.3646 38.2149 41.4225 38.8483 41.5197L45.7579 19.478C42.7984 18.6593 39.7465 18.2374 36.6798 18.2238Z" fill="black"/>
<path d="M45.758 19.478L38.8483 41.5219C46.3886 42.691 48.5851 49.1859 48.5851 49.1859L69.5796 38.4743C69.5796 38.4743 61.6912 23.8942 45.758 19.478Z" fill="#E0E0E0"/>
<path d="M38.8259 51.0958L45.8406 19.1091L36.0373 50.3092C35.5441 51.0136 35.7038 51.9925 36.3939 52.4959C37.0841 52.9993 38.0432 52.8362 38.5365 52.1319C38.5589 52.0997 38.5806 52.0661 38.601 52.0325V52.0282C38.7446 51.7901 38.8224 51.5177 38.8273 51.2381C38.8315 51.188 38.8294 51.1423 38.8259 51.0958Z" fill="#535461"/>
</g>
<defs>
<linearGradient id="paint0_linear" x1="37" y1="53.0008" x2="37" y2="18.0006" gradientUnits="userSpaceOnUse">
<stop stop-color="#808080" stop-opacity="0.25"/>
<stop offset="0.54" stop-color="#808080" stop-opacity="0.12"/>
<stop offset="1" stop-color="#808080" stop-opacity="0.1"/>
</linearGradient>
<clipPath id="clip0">
<rect width="66" height="35" fill="white" transform="translate(4 18)"/>
</clipPath>
</defs>
</svg>
